<?xml version="1.0" standalone="no"?>
<!DOCTYPE svg PUBLIC "-//W3C//DTD SVG 20010904//EN"
 "http://www.w3.org/TR/2001/REC-SVG-20010904/DTD/svg10.dtd">
<svg version="1.0" xmlns="http://www.w3.org/2000/svg"
 width="16.000000pt" height="16.000000pt" viewBox="0 0 16.000000 16.000000"
 preserveAspectRatio="xMidYMid meet">
<metadata>
Created by potrace 1.11, written by Peter Selinger 2001-2013
</metadata>
<g transform="translate(0.000000,16.000000) scale(0.001280,-0.001280)"
fill="#000000" stroke="none">
<path d="M0 6250 l0 -6250 6250 0 6250 0 0 6250 0 6250 -6250 0 -6250 0 0
-6250z m2677 5193 c10 -61 10 -272 0 -340 l-8 -53 110 0 c94 0 110 -2 116 -17
14 -36 18 -297 5 -370 l-12 -73 -113 0 -112 0 -7 -77 c-12 -137 16 -123 -241
-123 l-224 0 -12 58 c-10 50 -8 291 3 367 3 19 -3 20 -185 23 -219 3 -201 15
-210 -135 -3 -51 -8 -97 -12 -103 -4 -6 -52 -10 -114 -10 l-108 0 9 -52 c6
-31 7 -115 3 -203 -4 -82 -6 -177 -4 -210 4 -76 5 -312 0 -390 -1 -33 0 -123
4 -200 4 -77 3 -170 -2 -207 l-9 -67 110 -3 110 -3 8 -45 c12 -64 14 -253 4
-333 l-8 -67 194 2 193 3 9 100 c4 55 7 127 5 160 -5 93 -5 335 1 380 l5 40
-164 2 c-89 1 -165 4 -168 6 -2 3 -9 49 -14 103 -10 91 -7 204 8 297 l6 37
112 0 112 0 7 83 c4 45 9 92 12 104 l6 23 394 2 394 3 8 -35 c4 -19 7 -100 6
-180 0 -80 -1 -181 -1 -225 -1 -101 0 -366 0 -465 2 -296 1 -388 -6 -412 l-7
-28 -110 0 -110 0 7 -57 c10 -72 9 -282 -1 -345 l-7 -48 -118 0 -118 0 -2 -62
c-1 -35 -5 -79 -10 -98 l-7 -35 -561 -3 -561 -2 -7 57 c-10 80 -8 301 4 340 5
17 7 34 3 37 -3 3 -54 6 -113 6 l-108 0 -8 58 c-9 64 -11 235 -3 327 l5 60
-110 5 -110 5 -8 60 c-5 33 -5 128 -2 210 4 83 5 175 4 205 -4 67 -5 316 -1
385 1 28 0 118 -3 200 -4 83 -2 177 2 210 l8 60 113 3 112 3 -7 42 c-12 67 -8
348 5 380 l12 28 106 -3 106 -3 -8 70 c-9 88 -7 300 4 340 l8 30 111 3 110 3
7 72 c4 40 9 87 13 105 l5 32 564 0 563 0 8 -47z m1759 35 c11 -18 17 -315 7
-378 l-8 -55 -116 -3 -116 -3 -7 -83 c-8 -105 -11 -114 -44 -118 -27 -3 -27
-5 -40 -113 -10 -87 -10 -133 -1 -218 8 -71 9 -142 4 -205 -5 -53 -7 -137 -5
-187 2 -49 4 -134 3 -187 0 -54 -1 -154 -1 -223 0 -69 0 -172 0 -230 0 -58 0
-154 0 -215 0 -60 1 -158 2 -217 0 -60 -1 -135 -4 -168 l-5 -60 165 -5 165 -5
8 -55 c10 -61 4 -361 -7 -379 -5 -7 -47 -11 -120 -11 l-113 0 -7 -86 c-4 -47
-10 -92 -13 -100 -4 -12 -88 -14 -564 -14 l-559 0 -7 28 c-10 35 -10 349 0
384 l7 27 113 3 112 3 7 87 c8 114 12 124 45 123 27 0 28 1 41 105 11 82 11
133 3 230 -7 82 -7 163 -1 235 6 69 6 154 0 230 -7 81 -7 153 1 226 7 77 7
135 -1 207 -8 73 -8 136 0 225 7 87 7 158 0 234 -7 72 -7 143 0 212 5 57 7
108 4 113 -3 5 -72 8 -162 7 l-155 -2 -11 24 c-12 29 -14 328 -3 382 l8 37
108 0 c120 0 121 0 121 68 0 20 3 61 6 90 l7 52 563 0 c424 0 565 -3 570 -12z
m1991 -25 c10 -49 10 -327 0 -375 l-8 -38 -114 0 c-103 0 -115 -2 -116 -17 -1
-27 -5 -62 -13 -125 l-8 -58 -307 0 -307 0 -13 -122 c-9 -96 -10 -144 0 -218
11 -89 8 -190 -7 -303 l-7 -47 444 0 443 1 10 -23 c12 -28 14 -338 3 -390 l-8
-38 -113 0 -113 0 -7 -67 c-4 -38 -9 -83 -12 -100 l-6 -33 -308 0 -307 0 -9
-97 c-5 -54 -7 -134 -4 -178 2 -44 4 -127 3 -185 0 -58 -1 -166 0 -240 1 -271
-1 -356 -10 -395 l-9 -40 -117 -3 -117 -3 0 -53 c0 -29 -3 -74 -6 -100 l-7
-46 -228 0 -228 0 -7 58 c-5 31 -8 102 -7 157 0 55 0 159 0 230 0 300 2 372
10 410 6 23 6 52 1 70 -9 30 -12 161 -11 405 1 204 1 327 1 470 -1 74 -1 173
0 220 0 47 -1 144 -1 215 -2 264 1 361 10 395 7 24 5 68 -6 144 -12 88 -13
130 -4 217 6 59 14 112 17 118 5 7 47 11 115 11 l108 0 7 83 c4 45 9 92 13
105 l5 22 674 0 673 0 8 -37z m1990 0 c9 -49 10 -260 1 -340 l-8 -62 82 -3 82
-3 8 -35 c11 -51 14 -254 5 -337 -8 -73 -8 -73 16 -73 23 0 25 4 31 83 4 45
12 99 17 119 l9 37 78 -1 77 -1 -5 54 c-8 84 -6 289 3 342 l8 47 113 0 113 0
6 83 c4 45 9 92 13 105 l6 22 284 0 c221 0 284 -3 284 -12 0 -7 5 -53 11 -103
7 -64 7 -126 -1 -214 -9 -95 -8 -150 1 -233 10 -85 10 -131 0 -215 -9 -81 -9
-139 -1 -231 8 -89 8 -151 0 -223 -8 -76 -8 -130 1 -215 9 -88 9 -141 0 -226
-9 -84 -9 -140 0 -230 8 -91 8 -147 0 -231 -9 -84 -9 -133 0 -203 8 -70 9
-125 0 -218 -8 -93 -8 -157 1 -248 9 -96 8 -145 -2 -225 l-12 -103 -118 0
-117 0 -6 -82 c-8 -129 15 -118 -242 -118 l-224 0 -8 48 c-4 26 -6 115 -4 197
5 238 5 256 0 332 l-4 73 -116 0 -116 0 -11 -95 c-6 -52 -14 -99 -17 -105 -4
-6 -71 -10 -169 -10 l-163 0 -11 -111 c-6 -60 -14 -114 -17 -120 -4 -5 -57 -9
-119 -9 l-113 0 -5 -84 c-3 -46 -10 -91 -15 -101 -9 -16 -31 -17 -229 -16
-120 1 -220 3 -221 5 -1 1 -8 49 -14 106 -10 80 -9 130 0 221 9 92 9 140 0
223 -10 82 -10 132 -1 226 9 90 9 144 1 215 -8 68 -8 129 0 222 7 93 7 155 -1
226 -8 72 -8 130 0 221 9 91 9 152 0 240 -9 88 -9 142 0 215 8 72 9 130 0 222
-8 94 -8 150 1 231 10 84 10 130 0 221 -10 90 -10 135 -1 212 7 54 15 102 18
106 3 5 54 9 113 9 l108 0 7 83 c4 45 9 92 13 105 l5 22 284 0 283 0 8 -37z
m3177 15 c15 -48 19 -283 6 -356 l-12 -72 -113 0 -112 0 -7 -77 c-4 -43 -10
-88 -13 -100 l-5 -23 -307 0 -307 0 -12 -118 c-10 -92 -10 -144 -1 -239 9 -90
9 -145 1 -218 -6 -54 -9 -102 -6 -107 3 -4 202 -8 443 -8 l439 0 6 -22 c15
-48 19 -283 6 -356 l-12 -72 -112 0 -112 0 -12 -96 c-6 -53 -13 -98 -15 -101
-3 -2 -142 -4 -309 -3 l-304 0 -12 -121 c-8 -89 -8 -150 0 -235 8 -83 8 -141
0 -216 -6 -56 -9 -105 -6 -110 3 -4 203 -8 444 -8 l439 0 8 -37 c10 -49 10
-304 0 -365 l-8 -48 -114 0 -113 0 -7 -82 c-3 -46 -9 -91 -11 -100 -5 -17 -46
-18 -679 -18 l-673 0 -12 101 c-9 68 -10 130 -4 188 5 47 8 115 8 151 -2 246
-2 374 -1 435 0 39 -1 122 -3 185 -2 63 -3 185 -3 270 1 284 1 346 1 670 0 36
0 133 0 215 0 83 0 184 0 225 0 90 0 333 0 485 0 61 4 128 9 150 l9 40 111 3
110 3 7 82 c4 45 9 92 13 105 l5 22 673 0 673 0 6 -22z m-7911 -4555 c4 -21 9
-68 13 -105 l7 -68 112 0 112 0 6 89 c4 48 9 96 13 105 5 14 28 16 174 16 195
0 178 11 187 -122 l6 -88 112 0 112 0 7 68 c4 37 9 84 13 105 l6 37 227 0 228
0 12 -87 c9 -62 10 -122 4 -203 -4 -63 -6 -149 -4 -190 2 -41 4 -126 3 -187 0
-62 -1 -162 -1 -223 0 -60 0 -162 0 -225 0 -202 1 -337 2 -460 0 -66 -3 -141
-7 -167 l-8 -48 -84 0 -84 0 7 -37 c4 -21 7 -99 6 -173 -1 -240 -1 -312 0
-465 0 -82 -3 -166 -7 -185 -7 -35 -7 -35 -59 -35 l-53 0 5 -55 c8 -84 6 -289
-3 -342 l-8 -48 -117 0 -117 0 -3 -74 c-2 -40 -6 -86 -11 -102 l-7 -29 -161
-3 c-140 -2 -162 0 -174 14 -11 13 -14 57 -14 193 0 97 3 190 7 208 l7 32 -57
3 -57 3 -8 55 c-5 30 -7 128 -4 218 l4 162 -22 0 c-21 0 -23 -6 -29 -89 -11
-141 -13 -144 -71 -145 -49 -1 -50 -1 -48 -31 7 -83 4 -354 -4 -380 l-9 -30
-116 -3 -115 -3 -6 -96 c-4 -63 -10 -99 -19 -104 -17 -11 -309 -11 -325 -1 -8
5 -17 50 -23 108 -10 91 -9 137 6 282 l5 52 -55 0 -55 0 -7 48 c-5 26 -8 99
-7 162 1 226 1 351 -1 453 0 56 1 131 4 165 l5 64 -70 0 c-85 0 -90 2 -95 36
-4 25 -6 762 -3 842 1 19 0 204 -3 410 -2 206 -2 403 2 438 l6 62 112 0 113 0
7 68 c4 37 9 84 13 105 l6 37 227 0 227 0 6 -37z m3574 10 c10 -37 10 -337 0
-385 l-8 -38 -113 0 -113 0 -7 -80 c-7 -90 -20 -132 -38 -129 -7 1 -94 1 -194
0 l-181 -1 -8 -102 c-4 -57 -6 -125 -4 -153 2 -27 3 -115 3 -195 -1 -218 -1
-291 -1 -450 0 -80 0 -179 0 -220 0 -41 0 -145 0 -230 0 -85 0 -189 0 -230 0
-41 0 -140 0 -220 0 -80 0 -181 1 -225 1 -329 0 -393 -7 -417 l-7 -28 -114 0
-113 0 -8 -82 c-3 -44 -11 -92 -16 -105 l-9 -23 -209 0 c-172 0 -212 3 -224
15 -22 22 -31 129 -22 274 4 69 6 155 4 191 -3 58 -4 177 -1 405 0 39 0 139 0
223 -1 83 -1 190 -1 237 0 47 0 146 0 220 0 135 0 188 0 463 0 81 1 167 2 192
2 25 0 113 -4 195 -5 102 -4 168 4 204 6 30 10 55 8 57 -2 2 -150 4 -329 4
-285 1 -328 4 -340 17 -15 18 -19 356 -5 405 l7 27 113 3 c111 3 112 3 114 28
1 14 5 60 8 103 l7 77 899 0 899 0 7 -27z m899 -40 c5 -38 7 -124 5 -193 -2
-69 -4 -154 -4 -190 1 -36 2 -135 3 -220 1 -85 -3 -169 -8 -186 -6 -20 -6 -49
0 -80 12 -64 15 -251 5 -336 l-9 -68 305 0 304 0 12 128 c10 100 10 143 0 197
-8 49 -9 107 -4 195 5 69 7 161 5 205 -7 123 -5 305 4 358 l7 47 113 0 113 0
7 83 c11 142 -18 127 246 127 l228 0 9 -67 c10 -85 8 -285 -4 -338 -5 -23 -6
-55 -1 -75 12 -48 12 -315 0 -367 -6 -27 -6 -59 0 -90 5 -26 9 -114 8 -195 -2
-82 -2 -181 -2 -220 1 -40 1 -140 0 -223 0 -168 0 -220 0 -435 0 -215 0 -267
0 -435 1 -82 0 -181 0 -220 -1 -38 0 -124 3 -190 2 -66 0 -155 -4 -197 l-9
-78 -117 0 -118 0 -7 -97 c-4 -59 -12 -100 -19 -105 -16 -10 -418 -10 -434 0
-22 14 -36 158 -27 282 4 63 6 151 4 195 -2 44 -4 130 -3 190 1 119 1 319 -1
455 -1 47 1 113 4 148 l5 63 -302 2 -302 2 -7 -65 c-8 -72 -9 -163 -5 -380 1
-80 -1 -167 -6 -195 -5 -27 -5 -66 -1 -85 11 -52 14 -243 5 -332 l-9 -78 -117
0 -118 0 -6 -91 c-4 -51 -12 -98 -18 -105 -9 -11 -58 -14 -230 -14 l-218 0 -7
58 c-4 31 -7 107 -7 167 0 61 0 161 0 223 1 61 1 155 1 207 -1 139 -1 372 0
478 0 50 0 153 0 227 -1 74 -1 170 0 213 0 70 0 190 0 437 -1 178 -1 382 0
475 0 52 0 146 -1 208 -1 251 1 349 7 392 l7 45 113 0 113 0 7 90 c4 50 9 97
12 105 5 13 42 15 234 15 l228 0 8 -67z m3441 40 c10 -37 10 -327 0 -380 l-7
-43 113 0 114 0 7 -52 c8 -68 7 -290 -2 -348 l-7 -45 -50 -3 -50 -3 0 -209 c0
-144 -4 -213 -11 -220 -8 -8 -52 -12 -122 -11 l-110 0 -7 -81 c-9 -104 -18
-128 -48 -128 -23 0 -24 -4 -31 -82 -4 -46 -9 -100 -13 -121 l-6 -39 53 3 c48
3 54 1 63 -22 12 -29 15 -316 4 -376 l-7 -42 82 -3 82 -3 9 -40 c12 -53 14
-242 4 -332 l-8 -73 85 0 84 0 7 -76 c9 -88 2 -344 -9 -362 -5 -8 -43 -12
-122 -12 l-114 0 0 -52 c-1 -72 -15 -139 -31 -149 -8 -5 -107 -9 -222 -9
l-207 0 -12 28 c-13 32 -17 305 -5 375 l8 47 -81 0 c-78 0 -81 1 -90 26 -17
44 -23 223 -11 318 8 69 8 92 -1 97 -7 4 -41 7 -75 7 -38 -1 -69 4 -76 11 -9
9 -12 71 -12 222 l0 209 -115 1 c-63 0 -123 2 -133 4 -11 2 -19 -4 -21 -18 -9
-45 -18 -194 -15 -242 2 -27 3 -121 3 -207 -1 -205 -1 -247 0 -435 1 -87 -1
-175 -4 -195 l-4 -38 -117 0 -116 0 -6 -91 c-4 -51 -12 -98 -18 -106 -9 -11
-56 -13 -225 -13 -209 1 -214 2 -226 23 -8 15 -12 74 -12 177 1 356 1 462 1
920 0 167 0 298 0 450 0 72 0 173 0 225 0 52 0 148 0 213 0 64 0 162 0 217 0
102 0 268 0 455 0 58 0 166 -1 240 0 74 3 152 7 173 l8 37 113 0 113 0 6 89
c4 48 9 96 13 105 6 15 74 16 790 16 l784 0 7 -27z"/>
<path d="M8337 10513 c-3 -43 -8 -88 -12 -100 -6 -20 -3 -22 36 -25 38 -3 44
-6 51 -33 11 -43 15 -278 5 -352 -11 -75 8 -89 19 -15 7 41 7 109 0 382 0 30
2 92 6 138 l7 82 -53 0 -53 0 -6 -77z"/>
<path d="M8775 10380 c-3 -6 -3 -19 0 -31 4 -11 10 -59 13 -107 4 -53 11 -85
17 -82 6 3 8 10 7 15 -2 6 -6 54 -9 108 -6 92 -14 120 -28 97z"/>
<path d="M4170 4663 c0 -27 -3 -72 -6 -100 l-7 -53 51 0 50 0 6 50 c3 28 9 73
12 100 l6 50 -56 0 -56 0 0 -47z"/>
<path d="M10495 6290 c-1 -3 -3 -36 -4 -74 -1 -38 -6 -90 -11 -115 -5 -28 -4
-67 2 -101 6 -31 8 -127 6 -222 l-5 -168 247 0 248 0 7 103 c3 56 5 129 4 162
-7 117 -4 341 4 378 l8 37 -218 1 c-120 0 -233 1 -251 2 -19 1 -35 0 -37 -3z"/>
</g>
</svg>
